<svg width="16" height="16" fill="#FFD450" viewBox="0 0 16 16"xmlns="http://www.w3.org/2000/svg">
<path d="M8.00001 1.33337L10.06 5.50671L14.6667 6.18004L11.3333 9.42671L12.12 14.0134L8.00001 11.8467L3.88001 14.0134L4.66668 9.42671L1.33334 6.18004L5.94001 5.50671L8.00001 1.33337Z"/>
<path d="M8.00001 1.33337L15.1737 -2.20762C13.8259 -4.93805 11.045 -6.66663 8.00001 -6.66663C4.95506 -6.66663 2.17412 -4.93805 0.826352 -2.20762L8.00001 1.33337ZM10.06 5.50671L2.88635 9.0477C4.05067 11.4065 6.30015 13.0422 8.90299 13.4226L10.06 5.50671ZM14.6667 6.18004L20.2485 11.9109C22.4295 9.78666 23.2157 6.60864 22.2766 3.71258C21.3376 0.816517 18.8362 -1.29553 15.8237 -1.73585L14.6667 6.18004ZM11.3333 9.42671L5.75148 3.69584C3.86449 5.53377 3.00319 8.18282 3.44847 10.7791L11.3333 9.42671ZM12.12 14.0134L8.3964 21.094C11.0917 22.5114 14.3581 22.2756 16.8219 20.4858C19.2857 18.696 20.5197 15.6625 20.0049 12.661L12.12 14.0134ZM8.00001 11.8467L11.7236 4.76612C9.39256 3.54024 6.60746 3.54024 4.2764 4.76612L8.00001 11.8467ZM3.88001 14.0134L-4.00486 12.661C-4.51965 15.6625 -3.28569 18.696 -0.821863 20.4858C1.64196 22.2756 4.90829 22.5114 7.60362 21.094L3.88001 14.0134ZM4.66668 9.42671L12.5515 10.7791C12.9968 8.18282 12.1355 5.53377 10.2485 3.69584L4.66668 9.42671ZM1.33334 6.18004L0.176318 -1.73585C-2.83616 -1.29553 -5.3376 0.816517 -6.27663 3.71258C-7.21565 6.60864 -6.42946 9.78666 -4.24852 11.9109L1.33334 6.18004ZM5.94001 5.50671L7.09704 13.4226C9.69987 13.0422 11.9494 11.4065 13.1137 9.0477L5.94001 5.50671ZM0.826352 4.87437L2.88635 9.0477L17.2337 1.96572L15.1737 -2.20762L0.826352 4.87437ZM8.90299 13.4226L13.5097 14.0959L15.8237 -1.73585L11.217 -2.40918L8.90299 13.4226ZM9.08481 0.449176L5.75148 3.69584L16.9152 15.1576L20.2485 11.9109L9.08481 0.449176ZM3.44847 10.7791L4.23514 15.3657L20.0049 12.661L19.2182 8.07436L3.44847 10.7791ZM15.8436 6.93279L11.7236 4.76612L4.2764 18.9273L8.3964 21.094L15.8436 6.93279ZM4.2764 4.76612L0.1564 6.93279L7.60362 21.094L11.7236 18.9273L4.2764 4.76612ZM11.7649 15.3657L12.5515 10.7791L-3.21819 8.07436L-4.00486 12.661L11.7649 15.3657ZM10.2485 3.69584L6.91521 0.449176L-4.24852 11.9109L-0.915186 15.1576L10.2485 3.69584ZM2.49037 14.0959L7.09704 13.4226L4.78298 -2.40918L0.176318 -1.73585L2.49037 14.0959ZM13.1137 9.0477L15.1737 4.87437L0.826352 -2.20762L-1.23365 1.96572L13.1137 9.0477Z"/>
</svg>
